<svg width="124" height="42" viewBox="0 0 124 42" fill="none" xmlns="http://www.w3.org/2000/svg">
<rect width="124" height="42" rx="6" fill="#1C1C1C"/>
<path d="M24.9292 8.6897C25.0796 10.0467 24.5379 11.384 23.7462 12.3669C22.9201 13.3345 21.5985 14.0747 20.3113 13.9793C20.1428 12.6736 20.795 11.2851 21.5251 10.4379C22.3503 9.47658 23.7834 8.74006 24.9292 8.6897Z" fill="white"/>
<path d="M29.1431 16.5179C28.9994 16.6031 26.6188 18.0136 26.6449 20.8904C26.6757 24.3643 29.7066 25.5127 29.7429 25.5244C29.7248 25.6054 29.2682 27.1836 28.1314 28.7826C27.1821 30.1927 26.1875 31.5713 24.6077 31.5946C23.8564 31.6123 23.3491 31.3979 22.8205 31.1745C22.2694 30.9417 21.6951 30.699 20.7968 30.699C19.8445 30.699 19.2447 30.9497 18.6663 31.1914C18.1659 31.4006 17.6814 31.6031 16.9986 31.6306C15.494 31.6855 14.3445 30.127 13.3607 28.7295C11.3942 25.8779 9.8633 20.6934 11.9159 17.1655C12.9105 15.4353 14.724 14.3211 16.6625 14.2914C17.5162 14.2741 18.3349 14.6007 19.0526 14.887C19.6015 15.1059 20.0913 15.3013 20.4924 15.3013C20.8448 15.3013 21.3208 15.1137 21.8757 14.8951C22.7501 14.5506 23.8201 14.1289 24.9102 14.2428C25.6557 14.2644 27.7772 14.5351 29.1459 16.5162L29.1431 16.5179Z" fill="white"/>
<path fill-rule="evenodd" clip-rule="evenodd" d="M40.0404 9.46421H37.9139V15.7452H40.0404C41.9213 15.7452 43.0262 14.583 43.0262 12.6025C43.0262 10.6264 41.9169 9.46421 40.0404 9.46421ZM38.7031 10.1694V15.04H39.9877C41.4215 15.04 42.2194 14.1695 42.2194 12.6112C42.2194 11.0399 41.4258 10.1694 39.9877 10.1694H38.7031Z" fill="white"/>
<path fill-rule="evenodd" clip-rule="evenodd" d="M46.0745 15.8235C44.8118 15.8235 43.9612 14.9225 43.9612 13.4818C43.9612 12.0367 44.8118 11.14 46.0745 11.14C47.3328 11.14 48.1834 12.0367 48.1834 13.4818C48.1834 14.9225 47.3328 15.8235 46.0745 15.8235ZM47.4074 13.4818C47.4074 14.5482 46.8812 15.1576 46.0745 15.1576C45.2678 15.1576 44.7372 14.5482 44.7372 13.4818C44.7372 12.4154 45.2678 11.806 46.0745 11.806C46.8812 11.806 47.4074 12.4154 47.4074 13.4818Z" fill="white"/>
<path d="M53.003 15.7452H53.7791L55.0506 11.2184H54.2964L53.3845 14.9008H53.367L52.3322 11.2184H51.5956L50.5653 14.9008H50.5478L49.6358 11.2184H48.8773L50.1532 15.7452H50.9292L51.9552 12.2412H51.9727L53.003 15.7452Z" fill="white"/>
<path d="M56.6915 11.2184H55.9725V15.7452H56.7354V13.0813C56.7354 12.3152 57.2045 11.8103 57.9235 11.8103C58.625 11.8103 58.9714 12.2108 58.9714 12.942V15.7452H59.7343V12.8071C59.7343 11.7799 59.1556 11.14 58.1559 11.14C57.45 11.14 56.9633 11.4534 56.7091 11.9409H56.6915V11.2184Z" fill="white"/>
<path d="M61.042 9.46421V15.7452H61.8049V9.46421H61.042Z" fill="white"/>
<path fill-rule="evenodd" clip-rule="evenodd" d="M62.911 13.4818C62.911 14.9225 63.7615 15.8235 65.0243 15.8235C66.2826 15.8235 67.1332 14.9225 67.1332 13.4818C67.1332 12.0367 66.2826 11.14 65.0243 11.14C63.7615 11.14 62.911 12.0367 62.911 13.4818ZM65.0242 15.1576C65.831 15.1576 66.3571 14.5482 66.3571 13.4818C66.3571 12.4154 65.831 11.806 65.0242 11.806C64.2175 11.806 63.687 12.4154 63.687 13.4818C63.687 14.5482 64.2175 15.1576 65.0242 15.1576Z" fill="white"/>
<path fill-rule="evenodd" clip-rule="evenodd" d="M69.5326 15.8235C68.625 15.8235 68.0156 15.2794 68.0156 14.4655C68.0156 13.6907 68.6163 13.2032 69.6685 13.1423L70.9751 13.0683V12.6896C70.9751 12.1368 70.6068 11.806 69.9754 11.806C69.3879 11.806 69.0196 12.0802 68.9232 12.5242H68.1866C68.2392 11.7407 68.9144 11.14 69.993 11.14C71.0628 11.14 71.738 11.7146 71.738 12.6156V15.7452H71.0145V14.966H70.997C70.7252 15.484 70.1464 15.8235 69.5326 15.8235ZM70.9751 14.0259C70.9751 14.6788 70.4226 15.1793 69.7036 15.1793C69.1555 15.1793 68.7916 14.8964 68.7916 14.4655C68.7916 14.0389 69.1424 13.7691 69.7562 13.7299L70.9751 13.6559V14.0259Z" fill="white"/>
<path fill-rule="evenodd" clip-rule="evenodd" d="M72.7826 13.4818C72.7826 14.9008 73.5718 15.8235 74.7337 15.8235C75.3914 15.8235 75.9131 15.5014 76.2069 14.9791H76.22V15.7452H76.9478V9.46421H76.1849V11.954H76.1674C75.8956 11.4578 75.3694 11.14 74.7162 11.14C73.5674 11.14 72.7826 12.0628 72.7826 13.4818ZM74.8784 11.806C74.0717 11.806 73.5631 12.4589 73.5631 13.4818C73.5631 14.509 74.0717 15.1576 74.8784 15.1576C75.6632 15.1576 76.1893 14.496 76.1893 13.4818C76.1893 12.4719 75.6632 11.806 74.8784 11.806Z" fill="white"/>
<path fill-rule="evenodd" clip-rule="evenodd" d="M82.3079 15.8235C81.0452 15.8235 80.1946 14.9225 80.1946 13.4818C80.1946 12.0367 81.0452 11.14 82.3079 11.14C83.5663 11.14 84.4168 12.0367 84.4168 13.4818C84.4168 14.9225 83.5663 15.8235 82.3079 15.8235ZM83.6408 13.4818C83.6408 14.5482 83.1147 15.1576 82.3079 15.1576C81.5012 15.1576 80.9707 14.5482 80.9707 13.4818C80.9707 12.4154 81.5012 11.806 82.3079 11.806C83.1147 11.806 83.6408 12.4154 83.6408 13.4818Z" fill="white"/>
<path d="M86.2025 11.2184H85.4834V15.7452H86.2463V13.0813C86.2463 12.3152 86.7154 11.8103 87.4345 11.8103C88.136 11.8103 88.4824 12.2108 88.4824 12.942V15.7452H89.2453V12.8071C89.2453 11.7799 88.6665 11.14 87.6669 11.14C86.961 11.14 86.4743 11.4534 86.22 11.9409H86.2025V11.2184Z" fill="white"/>
<path d="M93.6627 10.1258H92.8998V11.2184H92.2202V11.8408H92.8998V14.57C92.8998 15.4405 93.2243 15.78 94.0617 15.78C94.2414 15.78 94.4519 15.7669 94.544 15.7452V15.1097C94.4914 15.1184 94.316 15.1315 94.2283 15.1315C93.8381 15.1315 93.6627 14.9443 93.6627 14.5308V11.8408H94.5484V11.2184H93.6627V10.1258Z" fill="white"/>
<path d="M95.6982 9.46421V15.7452H96.4611V13.1074C96.4611 12.3239 96.9303 11.8103 97.6888 11.8103C98.4034 11.8103 98.7673 12.2412 98.7673 12.9594V15.7452H99.5302V12.8202C99.5302 11.8103 98.9252 11.14 97.9255 11.14C97.2328 11.14 96.733 11.436 96.4787 11.9409H96.4611V9.46421H95.6982Z" fill="white"/>
<path fill-rule="evenodd" clip-rule="evenodd" d="M104.573 14.4481H103.824C103.697 14.8746 103.271 15.1663 102.693 15.1663C101.873 15.1663 101.36 14.5961 101.36 13.7299V13.6863H104.63V13.3991C104.63 12.028 103.872 11.14 102.64 11.14C101.382 11.14 100.575 12.0933 100.575 13.4992C100.575 14.9225 101.368 15.8235 102.675 15.8235C103.67 15.8235 104.442 15.2403 104.573 14.4481ZM102.627 11.7973C101.912 11.7973 101.412 12.3414 101.364 13.0944H103.841C103.824 12.337 103.346 11.7973 102.627 11.7973Z" fill="white"/>
<path fill-rule="evenodd" clip-rule="evenodd" d="M45.3018 31.1427L44.197 27.9019H39.5933L38.4884 31.1427H36.5382L40.8991 19.1518H42.9247L47.2856 31.1427H45.3018ZM40.0704 26.4062L41.87 21.1461H41.9202L43.7198 26.4062H40.0704Z" fill="white"/>
<path fill-rule="evenodd" clip-rule="evenodd" d="M57.1019 26.7718C57.1019 24.0047 55.6287 22.2596 53.3939 22.2596C52.1216 22.2596 51.1088 22.8995 50.5898 23.905H50.5564V22.4009H48.807V34.0345H50.6149V29.7051H50.6568C51.159 30.6774 52.1634 31.2923 53.4274 31.2923C55.6371 31.2923 57.1019 29.539 57.1019 26.7718ZM52.9168 29.7716C54.3481 29.7716 55.2437 28.6083 55.2437 26.7718C55.2437 24.9437 54.3481 23.772 52.9168 23.772C51.5357 23.772 50.6066 24.9686 50.6066 26.7718C50.6066 28.5916 51.5273 29.7716 52.9168 29.7716Z" fill="white"/>
<path fill-rule="evenodd" clip-rule="evenodd" d="M63.4864 22.2596C65.7213 22.2596 67.1944 24.0047 67.1944 26.7718C67.1944 29.539 65.7296 31.2923 63.5199 31.2923C62.256 31.2923 61.2515 30.6774 60.7493 29.7051H60.7075V34.0345H58.8995V22.4009H60.6489V23.905H60.6824C61.2013 22.8995 62.2141 22.2596 63.4864 22.2596ZM65.3362 26.7718C65.3362 28.6083 64.4406 29.7716 63.0093 29.7716C61.6198 29.7716 60.6991 28.5916 60.6991 26.7718C60.6991 24.9686 61.6282 23.772 63.0093 23.772C64.4406 23.772 65.3362 24.9437 65.3362 26.7718Z" fill="white"/>
<path d="M74.4056 27.8022H72.5558C72.673 29.9711 74.4809 31.3422 77.1594 31.3422C80.0221 31.3422 81.8217 29.9378 81.8217 27.6942C81.8217 25.9408 80.7921 24.952 78.3145 24.3703L76.9837 24.0462C75.4268 23.664 74.7906 23.1654 74.7906 22.3178C74.7906 21.2541 75.7867 20.5229 77.2431 20.5229C78.6996 20.5229 79.6956 21.2458 79.8044 22.4424H81.6291C81.5706 20.3733 79.8212 18.9523 77.2682 18.9523C74.6902 18.9523 72.8739 20.3733 72.8739 22.4424C72.8739 24.1127 73.9034 25.1431 76.1215 25.6749L77.6868 26.0489C79.252 26.4311 79.9132 26.9879 79.9132 27.9186C79.9132 28.9905 78.8167 29.7716 77.2933 29.7716C75.703 29.7716 74.5395 28.9905 74.4056 27.8022Z" fill="white"/>
<path d="M86.0383 20.3318H84.2219V22.4009H82.9413V23.8219H84.2219V28.8409C84.2219 30.5278 84.9167 31.2009 86.6995 31.2009C87.1013 31.2009 87.5031 31.1677 87.704 31.1178V29.6968C87.5868 29.7218 87.2938 29.7384 87.1097 29.7384C86.3731 29.7384 86.0383 29.3977 86.0383 28.6415V23.8219H87.7123V22.4009H86.0383V20.3318Z" fill="white"/>
<path fill-rule="evenodd" clip-rule="evenodd" d="M88.9994 26.7718C88.9994 29.5888 90.6567 31.3089 93.1761 31.3089C95.6956 31.3089 97.3529 29.5888 97.3529 26.7718C97.3529 23.9631 95.6872 22.243 93.1761 22.243C90.665 22.243 88.9994 23.9631 88.9994 26.7718ZM93.1761 29.8298C94.5991 29.8298 95.5114 28.7163 95.5114 26.7718C95.5114 24.8356 94.5907 23.7221 93.1761 23.7221C91.7615 23.7221 90.8408 24.8356 90.8408 26.7718C90.8408 28.7163 91.7615 29.8298 93.1761 29.8298Z" fill="white"/>
<path d="M99.1589 22.4009H100.883V23.8883H100.925C101.218 22.8662 102.005 22.2596 103.043 22.2596C103.302 22.2596 103.528 22.3012 103.662 22.3261V23.9964C103.52 23.9382 103.202 23.8966 102.85 23.8966C101.687 23.8966 100.967 24.6694 100.967 25.9076V31.1427H99.1589V22.4009Z" fill="white"/>
<path fill-rule="evenodd" clip-rule="evenodd" d="M111.026 28.5812H112.742C112.491 30.1767 110.967 31.3151 108.95 31.3151C106.364 31.3151 104.798 29.5784 104.798 26.8196C104.798 24.0774 106.389 22.2492 108.875 22.2492C111.319 22.2492 112.842 23.961 112.842 26.6118V27.2267H106.623V27.3348C106.623 28.8555 107.544 29.8609 108.992 29.8609C110.021 29.8609 110.783 29.3457 111.026 28.5812ZM106.623 26.0752L111.026 26.0339C111.026 25.6656 110.871 24.9828 110.506 24.6207C110.141 24.2587 109.604 23.9838 108.875 23.9838C107.406 23.9838 106.623 24.958 106.623 26.0752Z" fill="white"/>
</svg>
