<svg width="124" height="42" viewBox="0 0 124 42" fill="none" xmlns="http://www.w3.org/2000/svg">
<rect width="124" height="42" rx="6" fill="#1C1C1C"/>
<path d="M38.1173 11.1907H35.5787V11.9386H37.3793C37.2902 12.9874 36.4113 13.4347 35.5818 13.4347C34.5204 13.4347 33.5941 12.6056 33.5941 11.4435C33.5941 10.3115 34.477 9.43977 35.584 9.43977C36.4383 9.43977 36.9415 9.98022 36.9415 9.98022L37.4689 9.43794C37.4689 9.43794 36.7919 8.6897 35.5571 8.6897C33.9847 8.6897 32.7684 10.0072 32.7684 11.4301C32.7684 12.8246 33.9126 14.1842 35.5971 14.1842C37.0788 14.1842 38.1634 13.1767 38.1634 11.6867C38.1634 11.3723 38.1173 11.1907 38.1173 11.1907Z" fill="white"/>
<path d="M38.5957 23.2445H44.1741C44.178 23.2603 44.275 23.6573 44.275 24.3341C44.275 27.6082 41.8918 29.8225 38.6362 29.8225C34.9344 29.8225 32.4202 26.8347 32.4202 23.7707C32.4202 20.6437 35.0931 17.7487 38.5481 17.7488C41.2614 17.7488 42.7492 19.393 42.7492 19.393L41.59 20.5846C41.59 20.5846 40.4842 19.3967 38.6073 19.3967C36.1749 19.3967 34.2348 21.3125 34.2348 23.8C34.2348 26.3533 36.27 28.1753 38.6023 28.1753C40.4252 28.1753 42.3565 27.1924 42.552 24.8879H38.5957V23.2445Z" fill="white"/>
<path fill-rule="evenodd" clip-rule="evenodd" d="M44.9867 25.9031C44.9867 23.8309 46.6271 22.0544 48.9162 22.0544C50.7978 22.0544 52.8382 23.378 52.8382 25.9482C52.8382 28.1906 51.0841 29.8154 48.9429 29.8154C46.5777 29.8154 44.9867 28.0058 44.9867 25.9031ZM51.1313 25.938C51.1313 24.4821 50.0646 23.5785 48.9389 23.5785C47.6741 23.5785 46.702 24.5825 46.702 25.9266C46.702 27.3003 47.6862 28.2922 48.9337 28.2922C50.069 28.2922 51.1313 27.3629 51.1313 25.938Z" fill="white"/>
<path fill-rule="evenodd" clip-rule="evenodd" d="M57.5551 22.0544C55.266 22.0544 53.6255 23.8309 53.6255 25.9031C53.6255 28.0058 55.2166 29.8154 57.582 29.8154C59.723 29.8154 61.4772 28.1906 61.4772 25.9482C61.4772 23.378 59.4368 22.0544 57.5551 22.0544ZM57.5778 23.5785C58.7034 23.5785 59.7702 24.4821 59.7702 25.938C59.7702 27.3629 58.7079 28.2922 57.5725 28.2922C56.3252 28.2922 55.341 27.3003 55.341 25.9266C55.341 24.5825 56.3129 23.5785 57.5778 23.5785Z" fill="white"/>
<path fill-rule="evenodd" clip-rule="evenodd" d="M62.2641 25.9358C62.2641 23.8853 63.9158 22.0585 66.0167 22.0585C66.9315 22.0585 67.6205 22.4099 68.1244 22.9491V22.2918H69.7632V29.2647C69.7632 32.0044 68.1711 33.3104 66.082 33.3104C64.1722 33.3104 63.0994 32.1446 62.5663 31.0253L64.0686 30.4018C64.2767 30.9019 64.8756 31.7837 66.0695 31.7837C67.3055 31.7837 68.1243 30.9815 68.1243 29.6427V28.8775C67.687 29.3814 67.0947 29.8205 65.9805 29.8205C64.1788 29.8205 62.2641 28.2716 62.2641 25.9358ZM66.1688 23.5796C67.199 23.5796 68.2568 24.4528 68.2568 25.9441C68.2568 27.4598 67.2012 28.2951 66.1461 28.2951C65.0261 28.2951 63.9838 27.3923 63.9838 25.9585C63.9838 24.4687 65.0663 23.5796 66.1688 23.5796Z" fill="white"/>
<path fill-rule="evenodd" clip-rule="evenodd" d="M73.7486 25.9246C73.7486 23.6146 75.4125 22.0491 77.3944 22.0491C78.9575 22.0491 80.1387 23.0842 80.645 24.3232L80.9172 24.956L75.6759 27.115C75.989 27.6936 76.4943 28.291 77.593 28.2911C78.5712 28.2911 79.1575 27.7631 79.5082 27.2228L80.8593 28.1154C80.2535 28.9202 79.2386 29.8183 77.5848 29.8183C75.6033 29.8183 73.7486 28.3688 73.7486 25.9246ZM77.4628 23.5417C78.177 23.5417 78.6909 23.9185 78.9092 24.3705L75.409 25.8229C75.2581 24.6984 76.3313 23.5417 77.4628 23.5417Z" fill="white"/>
<path d="M72.7991 29.588H71.0775V18.1501H72.7991V29.588Z" fill="white"/>
<path d="M94.1596 29.588H95.8812V18.1501H94.1596V29.588Z" fill="white"/>
<path fill-rule="evenodd" clip-rule="evenodd" d="M86.7517 29.588H85.0301V18.1501L89.1945 18.15C91.2132 18.15 92.8648 19.7896 92.8648 21.7938C92.8648 23.7978 91.2132 25.4374 89.1945 25.4374H86.7517V29.588ZM86.7516 23.7283V19.8591H89.1945C90.263 19.8591 91.1433 20.733 91.1433 21.7938C91.1433 22.8544 90.263 23.7283 89.1945 23.7283H86.7516Z" fill="white"/>
<path d="M108.592 33.3104L113.577 22.0494H111.696L109.441 27.1452L107.185 22.0494H105.305L108.5 29.2693L106.712 33.3104H108.592Z" fill="white"/>
<path fill-rule="evenodd" clip-rule="evenodd" d="M102.927 29.588H104.649V25.4742C104.918 21.2315 99.4999 20.2336 97.4497 23.2922L98.8351 24.2151C99.8375 22.4752 102.698 22.8755 102.886 24.7401C102.026 24.5141 101.098 24.3502 100.249 24.4354C98.9247 24.5684 97.7907 25.4035 97.6105 26.7712C97.5131 27.5103 97.6793 28.4213 98.199 28.9765C99.0089 29.8416 100.339 29.9582 101.431 29.6626C102.046 29.4961 102.53 29.1334 102.927 28.6647V29.588ZM101.022 28.1717C101.964 27.917 102.707 27.2328 102.927 26.2816C102.445 26.1268 102.002 26.0018 101.494 25.9409C98.5359 25.4994 99.0312 28.7105 101.022 28.1717Z" fill="white"/>
<path d="M49.2771 14.0776H48.4937V8.87237H49.2771V14.0776Z" fill="white"/>
<path d="M44.1061 14.0776H44.8896V9.65012H46.1757V8.87237H42.82V9.65012H44.1061V14.0776Z" fill="white"/>
<path d="M41.994 14.0776H38.9893V8.87237H41.994V9.65012H39.7729V11.0861H41.7266V11.8639H39.7729V13.2997H41.994V14.0776Z" fill="white"/>
<path d="M51.9844 14.0776V9.65012H53.2705V8.87237H49.915V9.65012H51.201V14.0776H51.9844Z" fill="white"/>
<path fill-rule="evenodd" clip-rule="evenodd" d="M55.2864 11.4301C55.2864 10.007 56.5028 8.6897 58.0751 8.6897C59.6475 8.6897 60.8639 10.007 60.8639 11.4301C60.8639 12.8134 59.7378 14.1624 58.0751 14.1837C56.4125 14.1624 55.2864 12.8134 55.2864 11.4301ZM58.0751 13.4344C57.0241 13.4216 56.1122 12.5966 56.1122 11.4435C56.1122 10.3208 56.9808 9.45403 58.0751 9.44001C59.1695 9.45403 60.0381 10.3208 60.0381 11.4435C60.0381 12.5966 59.1262 13.4216 58.0751 13.4344Z" fill="white"/>
<path d="M62.43 14.0776H61.6464V8.87237H62.43L64.9449 12.662V8.87237H65.7285V14.0776H64.9463L62.43 10.286V14.0776Z" fill="white"/>
<path d="M11.3758 15.1823L20.2279 23.9573L11.4183 32.8092C11.1612 32.647 11.0234 32.2958 11.021 31.8422L10.9412 16.1314C10.9387 15.6346 11.1208 15.3315 11.3758 15.1823Z" fill="white"/>
<path d="M12.3827 15.1941L23.147 21.0243L20.5941 23.5892L12.0071 15.0769C12.1372 15.0939 12.2678 15.1318 12.3827 15.1941Z" fill="white"/>
<path d="M23.6257 26.5944L20.9628 23.9547L23.623 21.2821L27.2863 23.266C28.1887 23.7545 27.7271 24.3657 27.2863 24.6052L23.6257 26.5944Z" fill="white"/>
<path d="M12.3827 32.7031C12.3014 32.7482 12.223 32.7836 12.148 32.8116L20.5967 24.3227L23.1492 26.853L12.3827 32.7031Z" fill="white"/>
</svg>
