<svg width="117" height="36" viewBox="0 0 117 36" fill="none" xmlns="http://www.w3.org/2000/svg">
<path d="M39.0586 25.6744H45.933C49.547 25.6744 51.4718 23.7663 51.4718 21.1743C51.4718 18.7653 49.767 17.3103 47.9364 17.2228V17.0638C49.6099 16.6822 50.8433 15.4816 50.8433 13.5655C50.8433 11.1246 49.052 9.39136 45.5009 9.39136H39.0586V25.6744ZM42.4605 22.8599V18.5347H45.3124C46.9465 18.5347 47.96 19.4888 47.96 20.8324C47.96 22.0569 47.1351 22.8599 45.2338 22.8599H42.4605ZM42.4605 16.2051V12.1741H45.0452C46.5537 12.1741 47.41 12.9612 47.41 14.1379C47.41 15.426 46.373 16.2051 44.9824 16.2051H42.4605Z" fill="#8CB7F5"/>
<path d="M53.2141 25.6744H56.561V18.7653C56.561 17.2626 57.6452 16.229 59.1222 16.229C59.5857 16.229 60.2221 16.3085 60.5364 16.4118V13.4065C60.2378 13.3349 59.8214 13.2872 59.4836 13.2872C58.1323 13.2872 57.0245 14.0823 56.5845 15.5929H56.4588V13.4621H53.2141V25.6744Z" fill="#8CB7F5"/>
<path d="M64.9538 25.905C66.7372 25.905 67.8921 25.1179 68.4813 23.9809H68.5756V25.6744H71.7496V17.4375C71.7496 14.5275 69.3141 13.3031 66.6272 13.3031C63.736 13.3031 61.8347 14.7024 61.3712 16.9286L64.4667 17.1831C64.6945 16.3721 65.4094 15.7758 66.6115 15.7758C67.7507 15.7758 68.4028 16.3562 68.4028 17.358V17.4057C68.4028 18.1928 67.5778 18.2962 65.4802 18.5029C63.0918 18.7255 60.947 19.5365 60.947 22.2636C60.947 24.6806 62.6518 25.905 64.9538 25.905ZM65.9123 23.5675C64.8831 23.5675 64.1445 23.0825 64.1445 22.1523C64.1445 21.1982 64.9223 20.7291 66.1008 20.5621C66.8315 20.4588 68.0256 20.2838 68.4263 20.0135V21.3095C68.4263 22.5895 67.3814 23.5675 65.9123 23.5675Z" fill="#8CB7F5"/>
<path d="M77.2846 18.6142C77.2925 17.0399 78.2195 16.1177 79.5709 16.1177C80.9143 16.1177 81.7235 17.0081 81.7157 18.5029V25.6744H85.0625V17.8986C85.0625 15.0523 83.4127 13.3031 80.8986 13.3031C79.1073 13.3031 77.811 14.1936 77.2689 15.6168H77.1275V13.4621H73.9378V25.6744H77.2846V18.6142Z" fill="#8CB7F5"/>
<path d="M91.7387 25.8732C93.6871 25.8732 94.7006 24.7362 95.1641 23.7186H95.3055V25.6744H98.6053V9.39136H95.2662V15.5134H95.1641C94.7163 14.5196 93.7499 13.3031 91.7308 13.3031C89.0832 13.3031 86.8441 15.3862 86.8441 19.5842C86.8441 23.6708 88.9889 25.8732 91.7387 25.8732ZM92.7993 23.1779C91.1573 23.1779 90.2617 21.6991 90.2617 19.5683C90.2617 17.4534 91.1416 15.9984 92.7993 15.9984C94.4256 15.9984 95.337 17.3898 95.337 19.5683C95.337 21.7468 94.4099 23.1779 92.7993 23.1779Z" fill="#8CB7F5"/>
<g opacity="0.8">
<path fill-rule="evenodd" clip-rule="evenodd" d="M11.415 2.27979H28.9831C31.8939 2.27979 34.2535 4.91911 34.2535 8.17487V27.8252C34.2535 31.0809 31.8939 33.7202 28.9831 33.7202H11.415C8.50419 33.7202 6.14453 31.0809 6.14453 27.8252L6.14453 8.17487C6.14453 4.91911 8.50419 2.27979 11.415 2.27979Z" fill="#0D6EFD" fill-opacity="0.2"/>
<path fill-rule="evenodd" clip-rule="evenodd" d="M6.51365 2.27979H25.0064C28.0704 2.27979 30.5542 4.91911 30.5542 8.17487V27.8252C30.5542 31.0809 28.0704 33.7202 25.0064 33.7202H6.51365C3.44967 33.7202 0.96582 31.0809 0.96582 27.8252L0.96582 8.17487C0.96582 4.91911 3.44967 2.27979 6.51365 2.27979Z" fill="#0D6EFD"/>
<g opacity="0.7">
<path opacity="0.3" fill-rule="evenodd" clip-rule="evenodd" d="M12.0509 15.1484H11.2927C11.2536 15.1484 11.1956 15.2035 11.1934 15.2398L10.6348 24.3765L21.0716 24.3745L20.5074 15.2398C20.5053 15.2048 20.4459 15.1484 20.4082 15.1484H19.6499V16.6865C19.6499 17.1112 19.3097 17.4555 18.89 17.4555C18.4703 17.4555 18.1301 17.1112 18.1301 16.6865V15.1484H13.5707V16.6865C13.5707 17.1112 13.2305 17.4555 12.8108 17.4555C12.3912 17.4555 12.0509 17.1112 12.0509 16.6865V15.1484Z" fill="white"/>
<path fill-rule="evenodd" clip-rule="evenodd" d="M15.8509 9.76562C17.9482 9.76562 19.6503 11.4884 19.6503 13.6089L20.4086 13.6107C21.2489 13.6107 21.9725 14.2986 22.0247 15.1441L22.5952 24.3814C22.6475 25.2283 22.0116 25.9148 21.1739 25.9148H10.5279C9.69057 25.9148 9.05429 25.2269 9.10651 24.3814L9.677 15.1441C9.7293 14.2972 10.4514 13.6107 11.2931 13.6107H12.0514C12.0514 11.4873 13.7549 9.76562 15.8509 9.76562ZM18.1305 13.6108C18.1305 12.3379 17.1088 11.3037 15.8509 11.3037C14.5938 11.3037 13.5712 12.3372 13.5712 13.6089L18.1305 13.6108ZM12.0514 15.1486H11.2931C11.254 15.1486 11.1961 15.2037 11.1938 15.24L10.6352 24.3767L21.072 24.3747L20.5079 15.24C20.5057 15.205 20.4463 15.1486 20.4086 15.1486H19.6503V16.6867C19.6503 17.1114 19.3101 17.4557 18.8904 17.4557C18.4708 17.4557 18.1305 17.1114 18.1305 16.6867V15.1486H13.5712V16.6867C13.5712 17.1114 13.231 17.4557 12.8113 17.4557C12.3916 17.4557 12.0514 17.1114 12.0514 16.6867V15.1486Z" fill="white"/>
</g>
</g>
</svg>
